<svg xmlns="http://www.w3.org/2000/svg" width="417.91" height="311.93" viewBox="0 0 417.906 311.926"><g fill-rule="evenodd"><path d="m2.49 233.53 21.983-7.881 29.45-8.917 9.126-21.571 2.49-6.428 16.797-13.066 5.187-1.244 3.732-6.431 6.429 2.695 6.43-1.451h5.185l7.88-6.428 4.979-1.247 38.783-7.465 61.18-12.858 73.42 20.324 60.559-16.382 11.614-2.698 16.591 9.124 11.616 3.736v12.65l21.985 16.798-3.942 14.104-20.532 69.271-93.951 5.185-56.619 24.473-25.717 11.612-39.819 2.49h-27.998l-19.289-19.289-58.07 12.861-24.473-11.615-8.919-18.042-21.983-24.268-16.585-7.84v-1.247l1.244-3.732h1.246v-2.695h1.244l-1.244-2.49z" fill="#9ed563"></path><path d="m377.46,122.57 9.126,2.487 10.993,4.563 2.903,9.747v6.846h2.488l2.489-.207 1.659,1.659 4.355,4.355-7.673,4.145 3.524,4.563 4.148,4.149-1.867,6.43 1.246,5.393 .621,1.657-1.451,1.453-1.037,1.244-1.454,1.661-1.864,1.244-2.281-1.04-4.354-1.451-4.148-2.072-4.149-1.867 .83,3.939 4.771,5.809-4.977,3.316-9.749,1.247-3.524-11.202-8.296-2.903-3.525-2.488 4.354-1.659 .83-2.488 .828-3.318 7.261-2.282-4.357-3.526v-.83l-.622-.621-.829-.416-.829.207-.83-.412-.208-.625v-1.866l.415-.207 .831-1.451-.625-10.993-.621-11.201-1.243-10.575 1.864-1.869 2.697.83 2.28.65z" fill="#025a54"></path><path d="m398,139.79 .621,2.695-.416,2.905-1.449,2.282v.623l.207.621 .621.414 2.282-.623 3.318-1.035 2.072,1.658 2.49,2.698-3.525,2.693-.415,2.491 .208,4.563 4.563,2.697-.413,4.562-1.661,4.355 5.185,5.6-6.015,2.072-4.979.415-3.73-3.316-4.356-1.452-1.867-.83-2.075-2.282-1.864,1.659 1.864,4.149 2.699,3.939-.416,4.563-2.075,1.864-2.488-2.072-2.075-.624-2.072-1.658-1.451-1.866-1.038-2.076-2.903-1.659-2.695-2.281-2.903-1.659 .621-2.489 2.075-2.075 1.243-2.074-.206-.207 1.244-.829-.207-.209 .207.209 1.037-2.281 5.185-.625-1.866-3.316-1.036-.417-.831,1.038-1.246-.412-1.035-1.247 .83-2.074-2.075-.828 .831-3.321-.207-4.147-.414-3.526-1.661-7.258 .829-7.675-.829-7.672 9.333,2.489 11.199,2.695 3.76,10.21z" fill="#40a629"></path><path d="m390.32,136.68-.413,2.696 3.937,1.246-1.864,3.111-1.037,1.452v3.733l-2.696-1.04-1.244-2.072 3.318-1.66v-2.903l-.828-.621-.625-.417-1.035.208-.621-.412-.416-1.04 2.697-1.658-3.527-1.036-.828-1.661-1.244-1.66h-2.491l-1.864.414-.416.83-1.036-.205-.625-.418-.414-1.451 1.867-.412 .829-.417 4.771-1.66 3.318,3.939 2.48,3.12z" fill="#bfe23e"></path><path d="m382.44,148.08 2.904.831 2.488,2.072 1.244,2.49 1.244,2.282-2.282,3.318 3.941.621 1.037,1.452 1.039,2.074-1.454,1.452-.622.416 1.243,1.452 2.697.621 .415,2.074 .206,1.868-1.243,1.66-1.454.621-1.448.621-1.247.209h-1.656l-.416-.623-.623-.623 .414-.828 1.246.414-.416-.414 .83,1.035 1.247-.412h1.865l.621-1.66 .829-2.282-3.11-1.037-1.452-.831-2.074-.83-2.488,2.697-1.036-2.491 1.866-1.658 5.807.621-1.867-3.938-1.658-3.318-3.939,4.354-.833-3.732 .625-1.245 1.657.624 .625-1.244v-2.491l-1.661-2.279-2.28-1.454-1.868-1.037-1.864,4.149-.831-3.112 3.316-3.732 .209-5.186 .417-4.563 2.695,3.111-2.074,4.563-.85,3.33z" fill="#bfe23e"></path><path d="m401.1,157.83 1.245,1.867-2.282,1.244v1.868l2.282,1.866 .83,2.697v2.903l-.417.83-.828.414h-.83l-1.451-1.865 2.075-2.282-1.451-1.867-7.261-2.282 11.2-4.977-7.676-1.66-.621-.622-.415-.621 .621-.625 1.869.625 2.282.415 .83,2.07z" fill="#bfe23e"></path><path d="m385.55,174.22-.621.413-.209.623-.827-.207-1.661-1.868v-3.11l.83-2.074h3.112l-2.281,4.354 1.66,1.88z" fill="#bfe23e"></path><path d="m380.78,169.24-.622,9.124-.831.418-1.867-2.905 .832-4.149 1.245-2.903h.83l.41.41z" fill="#bfe23e"></path><path d="m77.152,175.46-4.355,14.519-.623,16.385 4.979,14.519 .208,1.656-1.453-.621-1.867.208-6.22-4.149-8.712,3.528-6.844,1.035-7.259,2.077-6.844,2.282-6.221,3.939-5.807-3.734-4.563-4.768 1.038-5.394 1.244-1.66v-2.279l3.112-1.039 1.243-3.94 6.846-.623 4.354-1.866-5.184-2.489-5.393-3.111-1.037-4.146 .414-2.075 1.867-2.074 3.319-1.038 1.659-.831 2.488.209 1.866-.623-.829-1.867 .415-2.282 1.452-1.451 1.659-2.073 3.526-.623 3.318.623 1.244.208 1.453.205 1.452.208 1.036-1.244-.621-2.488 1.659-1.661 1.451-1.451 2.488-1.658 2.905-.207 2.28-.207 1.659,1.038 1.038,1.035 1.866-.621 .207-2.49 2.905.623 1.867.83-.208,4.149 3.523-2.51z" fill="#025a54"></path><path d="m68.441,178.99 1.66-1.246 2.487,1.867-4.147,12.442 1.452,14.105 2.695,12.444-8.919-1.456-10.576,2.491-8.089,2.902 .623.417h-.623l-.829.414 1.038-.414-.208-.207-4.978.621-4.355,2.697-4.356,2.073-4.354-3.319-2.905-3.733 1.244-4.354 1.867-5.187 8.71-3.109 7.673-1.245 1.867.206 2.075-.621 .207-1.037-1.244-2.075-4.149-.207-2.694-1.451-3.112-2.282-6.844-2.696 2.696-3.527 3.11-2.903 6.431,2.489 3.11-1.867-1.866-1.866-2.697-2.903 3.11-2.076 4.978-2.073 3.733,3.319 4.563.208 1.453-2.697-2.696-2.696 2.281-2.488 1.659-1.04 .622-.83 1.868-.412 3.111.621-.831,3.319 4.149-.6z" fill="#40a629"></path><path d="m62.842,192.26 .623,1.451 1.244,1.246 .207,1.452-1.451,1.035-1.661-.83-1.452-.415-2.487-.414h-3.526l-1.66,1.244v1.245l-.207,1.451 1.867.623 1.037-.416 1.245.209h1.037l.623.207 .207.415-.207.414-1.453.623-3.317.831 2.28,1.244 2.282,1.658 3.732.208 1.661,1.658-3.527,1.039-5.184-.209-2.49,2.074 .831,1.244 2.281-.417 .415,1.04-1.867,1.242-2.487-1.035-2.49.623-3.318.828-3.319.831-2.694,1.66 .828,1.452 4.147-1.66 .415,1.66-1.452.83 .416.205-.829.416-3.525-.207-1.245-.831-.415-1.039-2.282-.826 .83-.83 4.148-1.868 4.563-1.039 4.562-1.036 1.453-1.037-2.903-.621 1.451-1.04 2.904-.621 2.905-.621 2.696-.621-2.075-1.246-2.074-.415-1.452-1.867 .208-2.695-5.186-3.733 4.978-2.281 7.673.208 .416-2.076-2.696-2.282 2.074-2.072h3.525l-1.866,2.488 1.033,1.28z" fill="#bfe23e"></path><path d="m28.829,211.13-1.866.626 1.243,1.244-1.451.412 .208-.83 .621-1.036 1.245-.41z" fill="#fff"></path><path d="m48.531,222.54h-.83v-.414l.415-.412h.415v.82z" fill="#fff"></path><path d="m334.12,4.979 6.43,4.563 1.035,1.866-1.657,1.451v1.661l-1.037,6.842-2.488,6.224-1.038,6.844 2.697,7.261 5.806,6.219 3.526,7.051 8.088,10.787 8.919,10.578 6.638,11.614v3.523l3.315,2.077 2.489,3.112 3.319,3.938 4.562,4.149 4.356,2.903h.831l1.241.623 .626.828 .205-.207 .209.416 1.034.414-.206.624-4.771.828-4.148,4.148-4.561,2.282-3.942,14.517 1.865,15.349-.621,14.517 1.246,1.451-1.66,2.902 1.035,1.87-.414.621-.207.621h-.828l-34.43,26.548 .415,1.658-2.072-.83-.624,1.04-4.77,3.524-4.977,4.356-4.979,3.528 .208.828h-.414l-.623.207-4.147,1.867-3.527,4.149-3.733,2.072-37.746,29.657-1.656,1.87-.415-.209-11.2,8.917-13.275,10.371-12.442,9.54v.623h-.623l-2.902,2.489-3.318,2.281-2.696,2.903-7.465-2.073-7.052-3.527-7.053-2.902-32.146-13.066-95.194-38.576-2.074-.621-1.867-1.037-2.282-.415-2.903-70.517-6.637-1.035-6.844,2.486-6.43.209-1.036-1.244-.623-1.451-.415-1.456 4.355-4.768 72.59-86.069 26.132-30.696 1.244-1.452-2.281-1.247-.208-1.451 1.452.416 .206,3.525 2.281-.83 .624.417 .415.414h.623l1.244-5.393-1.038-5.599-1.244-4.979 12.444-3.318 12.443-2.486 12.651-1.868 4.977,2.072 4.771,2.282 5.392,1.037 1.658,6.433-2.487,6.015-1.039,6.012 4.563,1.035h21.155l12.442,1.246 12.446-1.451 11.199-.621 10.991-.208 11.2-1.868 .621-5.805v-4.772l-.415-5.805-.827-.416 1.45-.83-1.659-.831-.208-.826-.413-.208 .83-.621 12.855-4.77 14.726-.624 13.896-2.488 2.5-.212 1.452,3.732 2.08,1.247z" fill="#282420"></path><path d="m327.89,1.246-.828,17.629-1.036,18.666-6.015,15.968-1.037.621-1.451-1.451-.624-1.242-5.601-8.505-6.428-8.503-6.221-8.088-3.32,1.244-3.11-.414-3.526.623-1.037-4.356 1.867-6.637-1.451-5.187-.416-1.242 2.281.621 .621-.83 5.604-3.523 7.465.826 5.599-2.902 3.941-2.282 5.394.621 4.767-.826 1.867-1.037 .624.828 2.1-.622z" fill="#bfe7f1"></path><path d="m339.3,13.068-2.074,10.575-3.731,9.542 .415,10.991-4.149,2.281-4.355,2.282-3.317,3.319 3.524-15.557 4.563-15.968 .62-17.212 4.978,1.658-.832,5.598 4.35,2.491z" fill="#90d5e6"></path><path d="m322.3,8.091-.621,2.281-3.321-1.037-1.867,1.037-2.069.414-2.283,2.698-2.073-1.661v-1.451l1.657-.625 1.037-.826 2.904-1.039 2.904-1.451 3.318.623 .41,1.037z" fill="#f0f9fc"></path><path d="m188.94,58.488-6.222-9.333-6.844-9.747-6.223-9.542-4.562,1.452-5.391-2.073-4.771.412-.415-1.452v-11.197h3.111l2.075-2.072 2.902-.621 7.26.205 5.183-5.393 6.844-.83 5.393-1.035-2.488,17.005 2.488,17.007 1.67,17.214z" fill="#def3f8"></path><path d="m201.8,11.824 2.075,5.184-3.112,6.635 1.661,4.979-1.246,8.71 .622,10.577 1.245,8.711-3.941,1.452-3.939,1.868-4.149.83-2.281-7.881-.621-8.917-.415-8.712 2.281-6.223-1.245-7.675 1.038-6.635 1.244-6.635 3.526,1.244 3.733,1.242 3.52,1.246z" fill="#bfe7f1"></path><path d="m325.2,12.858-.413,1.661-3.109-.205-3.111,1.863-2.491-1.452 .414-2.489 3.113.417 1.866-.625h1.451l1.453-.205 .83,1.035z" fill="#f0f9fc"></path><path d="m182.72,15.35-1.036,2.072-3.112-.205-1.866,1.658 2.488,1.244 2.696-3.733 2.075,2.696-.622,1.658-1.868.209-1.658.621h-2.904l-.829-1.038-.208-.623 1.037-.207v-.621l-1.867-.623-3.524,3.111-.83-3.111 1.038-1.243 3.941.205 3.111-4.563 3.95,2.493z" fill="#b0e2ed"></path><path d="m314.42,16.386-.211,2.282-2.904-.83-1.241,1.245-.832-.208h-.829l-.413-.828-.414-2.282 2.694.621 1.242-.83h1.04l1.242-.207 .62,1.037z" fill="#f0f9fc"></path><path d="m319.39,20.533 .413,1.247h-1.243l-.624.621h-2.488l-2.488.831-2.488-.624-.83-1.246 1.037-1.242h1.244l2.491.208 2.694-.623 2.29.828z" fill="#f0f9fc"></path><path d="m178.57,24.266v.83l-.415.624-.829.205-1.452-.621-2.281.83-1.245-1.244-.829-1.037 1.244-.621 .622-.417 1.868.623 2.073-.623 1.24,1.451z" fill="#b0e2ed"></path><path d="m318.77,26.548 .209,1.453h-1.451l-.829.205-1.453-.205-1.868.414-.621-1.451 .829-2.281 3.942.621 1.24,1.244z" fill="#f0f9fc"></path><path d="m179.19,28.83 .415.416-.208.621v.416l-1.659.415-1.867.207-1.245-1.451 .209-.623 .206-.829 .624-.207 1.451-.209 1.036.83 1.04.414z" fill="#b0e2ed"></path><path d="m311.3,45.214-.827.83 2.695,3.942 2.489,4.145 1.243,4.563 .83.83h2.074l1.868-3.732 3.938-3.112 3.321-2.903 .621-3.524 4.148.205 2.488-2.074-.83-1.863-.83-2.076 .621-2.075 10.164,20.324 15.971,17.838 13.271,19.08 4.563,4.356 3.734,4.563 4.977,3.526-9.956,8.503-11.612,5.186-10.165,8.296-6.636,4.977-7.051,4.354-6.846,4.564-.829,1.452-53.507,32.974-8.295,4.563-7.882,4.98-8.09,4.563-7.465-12.859-10.161-12.235-8.712-12.029-2.075-1.246-35.049-56.621-6.638-11.406-7.05-11.2-7.052-11.198-5.392-11.201-7.259-10.577-6.429-10.786 4.771-1.035 3.732,1.453 4.978-.209 2.075,2.697 1.036,3.111 2.489,2.282 .208-.416 .622-.209v-.621h.621l4.979,7.882-.623.83 2.49,6.844 4.77,5.599 3.111,6.43 .83.621 1.244.831 1.039-1.035 .621-.417-.206-1.04v-.62l2.072-2.489 4.148,1.244 .83-3.732 4.771-1.658-1.454-8.712-1.036-8.295 1.451-8.917 5.808,1.037 6.015-1.661 6.016,1.245 9.54-.621 10.161,1.863 9.955-1.036h15.763l16.798-.828 15.971-1.453 .413-.417 4.148,4.979 3.736,5.393 3.75,5.203z" fill="#f0bf91"></path><path d="m149.95,30.903 13.897,22.192 13.895,21.983 14.311,21.985 28.827,46.248 8.295,13.066 24.891,39.406 .827,1.453-2.488.828-.621,1.244h-.621l-7.261-11.407-5.807-12.029-7.466-11.2 .207-1.035-.621-1.452h-1.04l-6.844-11.202-7.466-11.198-8.089-10.784-40.24-64.715-6.843-9.335-3.735-10.577-6.429-9.538-2.072-1.247 .414,2.489-1.038.831-8.918,10.786-8.088,10.989-8.504,10.786-40.649,46.872-9.125,10.991-11.821,9.542-8.089,11.614-4.356,3.938v-.622l8.088-8.295 4.977-9.126 8.089-7.882 10.37-12.65 32.561-38.574 1.453-.625-.415-1.865 1.451-1.038 33.599-39.197 1.036-.209 .415-1.451h1.05z" fill="#f6d9bc"></path><path d="m147.05,44.802-13.067,17.419-13.48,17.213-12.859,17.421-26.962,34.22-4.562,4.359-3.732,4.767-3.941,5.187-.83.414-1.246.209 .208,1.242 .208,2.074 1.451,1.038-.413,2.488-5.808-.621-4.978,2.486-5.6-.205 1.243-3.528 4.148-2.903 2.281-3.318 7.882-11.612 10.992-10.164 9.332-10.786 .208-2.072 34.22-39.613v.415l-.621.416 .621.205 9.334-10.368 8.501-11.614 9.542-10.37 2.489,1.66-3.941,1.866-.61,2.065z" fill="#b68066"></path><path d="m170.9,75.494 .208-.83-.415-1.035-.624-.83 28.416,44.797 1.036,6.431 6.429,4.977 2.696,6.014 7.26,10.575 6.22,10.994 6.846,10.786-2.282,50.811-1.864,7.673 .413,9.126-.829,8.087-2.075,41.898-8.71-3.528-8.71-3.942-8.918-3.112-45.627-18.871-10.578-4.355-10.576-4.149-10.578-4.354-46.89-19.31-.622-3.732-1.66-43.556 .416-2.279-1.452-4.146 2.281-1.452 .83-6.43v-7.054l-.83-6.426 .415-1.454 19.91-22.191 17.628-23.022 15.972-23.85 4.563-6.223 6.014-5.389 2.074-7.261 4.355-6.014 4.977-5.184 3.941-6.224 6.014,11.615 8.503,10.782 5.83,11.612z" fill="#e19f75"></path><path d="m246.6,65.747 23.85,34.427 13.065,17.212 13.687,17.008 15.556,14.933-.206.417-.415,1.037-.625-.831-26.545-24.268-19.51-29.03-19.289-28.622-3.32-5.808-4.147-5.393-2.281-6.431 4.355,4.563 2.073,5.81 3.75,4.978z" fill="#b68066"></path><path d="m261.32,57.451 12.649,19.91 12.861,20.325 15.347,18.249 3.111,3.321 2.903,3.524 3.315,2.902-.413,1.04h1.243l.416.416v.621l-12.441-10.163-8.505-12.028-9.747-13.275-8.919-12.859-9.541-13.271-6.844-13.484 2.075.623 1.45,2.282 1.05,1.865z" fill="#b68066"></path><path d="m218.6,56.207 21.153,33.183 24.265,31.317 25.097,31.108v.622l.207.625-.624.205h-.621l-22.813-28.62-27.378-36.295-7.051-9.956-6.014-10.578-7.055-10.161-.22-1.65 1.04.207z" fill="#b68066"></path><path d="m157.83,65.538-.412.209 1.242.831-1.036.207-14.934-1.247-.206-.414-.415-.207 .206-.621 3.32-1.454 3.939,1.036 3.527.418 1.451.828 1.866-.417 1.45.831z" fill="#f3ceab"></path><path d="m215.69,73.833 6.222,11.824 8.298,11.198 6.22,10.993v1.036l.83-1.036 .209.621 10.991,15.347 12.028,14.727 9.956,15.761-10.786-13.896-10.991-14.931-10.37-14.312-9.333-13.479-9.955-14.104-7.882-14.312 2.489.209 .623,2.698 1.44,1.651z" fill="#b68066"></path><path d="m158.24,74.871-6.221,1.04-6.016-3.112h-6.635v-.417l-.83-.621 .621-.414 2.49-.831 2.281,1.036h2.281l4.148,1.037 4.356.209 3.53,2.073z" fill="#f3ceab"></path><path d="m202.01,74.871 8.501,12.237 6.845,13.066 9.125,12.238 10.371,19.91 15.969,17.005 10.992,19.496-.208.414-8.29-12.23-10.162-11.198-7.882-12.238-11.406-20.117-15.14-18.457-10.785-20.119 .621-.621h.83l.62.628z" fill="#b68066"></path><path d="m160.73,84.618v.209l-9.955-.209-9.334-3.733h-10.576l-.416-.412v-.83l3.319-.83 3.94.83 3.526.207 6.844,1.035 6.429,1.661 6.22,2.072z" fill="#f3ceab"></path><path d="m309.23,93.329 8.919,11.617 10.992,10.988 7.881,12.029 .206.625-.414.415-.207.416h-.414l-12.236-17.007-14.102-15.14-13.482-16.178 5.185,2.696 3.734,5.391 3.94,4.13z" fill="#b68066"></path><path d="m168.41,96.65v.205h.206v.209l-2.281,1.242-2.697-1.242h-2.487l-10.785-1.87-10.578-3.107-11.406-.416-.416-.621-.623-.209 .623-.83 4.563-.621 5.185,1.037 4.562.624 8.712,1.863 8.504,2.076 8.94,1.66z" fill="#f3ceab"></path><path d="m328.31,100.17 5.186,7.674 8.502,6.844 3.319,8.708 .208.83-.208,1.04h-.829l-4.772-10.166-9.954-8.086-5.806-9.542v-1.018l1.866.624 1.244,1.451 1.24,1.655z" fill="#b68066"></path><path d="m352.99,116.35v.623l-.206.831-.621.621-4.356-7.261-4.978-7.465-5.186-7.049 .207-.21h.83l.414.415 6.431,5.393 3.939,7.261 3.54,6.84z" fill="#b68066"></path><path d="m175.87,108.47-12.027-1.038-10.993-3.938-11.821-1.869-6.431-.828-6.429-1.244-6.429.621 .208-2.073 2.489.831 1.244-.625 17.835.83 16.178,5.184 16.17,4.15z" fill="#f3ceab"></path><path d="m151.19,124.03 1.036,1.244-8.71-.209-8.295-1.66-8.503.416-1.037-1.451 .207-.621h.83l.621-.416 8.297.209 8.088.412 7.46,2.08z" fill="#f3ceab"></path><path d="m376.22,137.3v10.163l-.828,10.578 .414,10.163-.83,1.035-33.393,25.719-2.694-15.142 1.659-15.14-.416-14.931-.622-.417-6.222,5.391-8.09,1.868-7.05,4.355-1.036.417-.83-1.451-.83,1.242-1.034,18.042 2.28,19.289-2.28,17.421-12.654,9.954-42.517,31.938-11.613,6.638-10.37,9.954-11.199,8.3 1.038-46.459 .621-22.189 1.037-22.401 1.453-21.775 7.259,10.577 5.184,11.408 7.258,10.577 1.451.621 .832-1.451 .206-.621-.621-1.247 2.074-1.035 1.035-.83h1.037l.209,3.733 1.657-1.868-.205-1.035-1.868-.623 .416-1.453 10.575-6.845 10.372-7.256 11.405-5.603 2.904-4.974 6.429-1.04 3.94-3.94 75.698-47.7-.205,5.391-1.037,6.428v6.21z" fill="#b68066"></path><path d="m161.36,141.24 .208.621-.83.418-.415.205-15.14-2.695-14.31-4.149-15.971-.205-1.659-.417 .415-.623v-.831h.831l16.798-.412 14.933,4.354 15.14,3.75z" fill="#f3ceab"></path><path d="m165.3,150.16 .829.625-1.038,1.656-1.866-1.656-1.658.621-19.496-2.698-18.874-4.147-19.702-1.867-3.318-.412-3.735,1.451-2.694-1.246v-1.244l11.614-2.488 11.406,3.732 11.407,1.246 12.236,2.489 12.857.621 12.02,3.33z" fill="#f3ceab"></path><path d="m371.04,128.38 .206,1.451 .415,2.282-1.866.414-1.037,7.674 2.903,7.673-.621,7.469-7.468,2.696-4.77,7.465-6.43,5.184-2.488,3.735-.83.414-.209-1.037-.414-.414v-7.675l.623-7.26-.209-7.257h.414l-.414-4.149 1.039-5.393-1.246-4.147 22.401-14.31 .621,1.452-.621,2.282v1.47z" fill="#282420"></path><path d="m369.17,125.27-1.453,9.954 2.076,10.164 .205,9.331-6.428,4.358-6.843,3.938-5.809,6.223v-10.57l-.828-11.408-.417-10.368 1.245-.621 1.036,9.538-.416,10.368-.206,9.751 .832.205 4.77-4.563 5.185-5.393 5.598-1.656h.833l.413-.417-2.074-8.917 .207-9.335 .621-9.747 .417-.207 .416-.83 .6.22z" fill="#f3ceab"></path><path d="m366.47,127.14v8.296l-.416,8.916 1.451,8.296-2.072,2.489-3.318.623-2.282,2.072-7.466,6.221-.206-8.708 .206-10.786-.416-8.918 .21-.415 12.856-8.086h1.46z" fill="#3f5a8e"></path><path d="m359.83,132.32-.206,1.66v1.657l1.034,1.246 1.247-.621 1.244-1.456 1.451.209-1.037,1.451h-1.866l-1.246,1.452 .207,8.09 1.247.828 1.449-2.074 1.452-.415 .415.621-1.242,1.661-4.563-.208 1.451,3.527 .621,5.808h-.413l-.417.207-.621-2.488 .83-3.111-.83-2.282-2.074.621-1.451,1.661-1.865.83 .414-2.49h3.525l1.659-1.659-.208-2.695-.207-3.318-.206-2.488-1.867,1.453-2.075.205-1.867,1.247 .625-2.281 3.523.414 1.661-2.281-.621-5.394h.413l.208.207 .25.2z" fill="#f3ceab"></path><path d="m314,165.5 .417,1.451 .204,2.698-1.866.414-1.453,8.294 2.698,8.505-.83,8.295-8.296,3.112-5.6,8.293-7.052,5.602-2.902,3.94-.831.208-.209-.83-.621-.209 .416-8.502 .83-8.087v-8.091h.415v-4.563l1.035-5.805-1.035-4.563 3.109-3.941 5.603-1.242 3.73-3.528 12.237-7.88 1.244,1.452-1.038,3.112-.2,1.87z" fill="#282420"></path><path d="m312.13,161.98-1.867,10.991 1.867,11.2v10.161l-7.26,4.979-7.675,4.563-6.638,6.636 .416-11.408-.416-13.065-.206-11.199 1.246-.83 1.034,10.577-1.034,11.614-.414,10.787 1.035.207 5.185-4.979 6.016-6.015 6.222-2.072h.83l.413-.625-1.867-9.538 .624-10.163 1.037-10.786 .414-.205 .413-1.037 .64.22z" fill="#f3ceab"></path><path d="m309.02,164.05-.207,9.126-.62,9.747 1.243,9.126-2.49,2.698-3.523.83-2.696,2.489-8.297,6.844 .206-9.954 .417-11.616v-9.954l.416-1.039 1.864-1.242 1.453-.621 1.451-.83 1.45-1.04 7.675-4.563h1.66z" fill="#3f5a8e"></path><path d="m301.56,169.86v1.865l-.208,1.66 1.036,1.451 1.452-.83 1.454-1.452 1.449.209-1.035,1.451-2.074.208-1.451,1.656v8.712l1.451.831 1.451-2.282 1.658-.207 .417.416-1.245,1.866-5.185-.209 1.657,3.942 .416,6.221-.207.416h-.414l-.416.207-.415-2.905 .831-3.319-.831-2.695-2.281.624-1.45,2.072-2.283.831 .624-2.695h3.73l1.868-2.073-.208-2.697v-3.73l-.206-2.903-1.867,1.659-2.488.414-2.075,1.244 .83-2.488 3.939.623 1.661-2.697-.207-6.015h.413v.417l.21.22z" fill="#f3ceab"></path><path d="m231.66,219.42 1.246.209 16.799-7.259 15.14-9.955 17.836-5.809 .83-.621 .416-.623 .205-1.038-.83-.414-18.249,6.845-16.592,9.54-16.81,9.12z" fill="#f0bf91"></path><path d="m340.34,184.58 10.782-6.635 10.579-6.844 12.236-4.772 .828-.621 .415-.621v-1.039l-.622-.412-12.236,5.391-11.2,6.637-10.782,7.052v1.864z" fill="#f0bf91"></path><path d="m244.94,224.2-12.234,7.26 .621-.208 1.657-.831 .831-.207 .413-.205v-.418l1.454-.208 1.66-1.451 1.449-.205 1.246-1.87h2.281l1.45-1.452 .622.415 .416-1.036 .414-.208 .207-.207v-.206h.414l.207,1.036 .417-1.244h.416l.413-.621 1.036.205 .832-.826 .828-.209 12.028-4.563 10.576-6.221 12.032-4.563-.209-.831-15.142,4.354-12.649,7.881-13.7,6.64z" fill="#f0bf91"></path><path d="m235.81,257.79 1.037.623 7.051-4.768 7.675-4.149 7.466-4.356-.207-.416 .413-.206-.206-.416-.621-.621-8.506,3.523-7.465,4.979-6.63,5.83z" fill="#f0bf91"></path><path d="m278.95,229.38 .206.831 5.808-3.111 6.014-2.696 5.394-3.732 .207-.621-.207-.416-.414-.415-6.431,2.491-5.807,3.107-4.77,4.56z" fill="#f0bf91"></path><path d="m230.83,210.51 4.146.83 4.563-3.319 4.356-1.035 1.037-.83 1.245-.416 .622-1.245v-1.661l-.832-.413-4.354,3.733-6.222,1.037-4.57,3.33z" fill="#f0bf91"></path><path d="m279.78,187.9 .414,1.66 .207,2.903-2.075.414-1.658,9.126 2.905,9.333-1.039,8.712-9.124,3.524-6.222,8.919-7.677,6.221-3.109,4.354-1.038.418-.204-1.244-.626-.209 .417-9.333 1.037-8.708 .208-8.714h.413v-4.77l1.246-6.222-1.038-4.768 .414-.625 1.038-.621 .621-.415h1.037l.209,3.733 1.657-1.868-.205-1.035-1.868-.623 .416-1.453 7.88-5.185 7.879-5.393 8.299-4.563 .828,1.451-1.036,3.112-.2,1.89z" fill="#282420"></path><path d="m277.7,184.17-2.074,12.028 1.867,12.238v10.784l-7.883,5.393-8.502,4.975-7.467,7.261 .623-12.445-.414-13.687v-12.23l.414-.207 .207-.208 .414-.207h.207l.209.207 .205.208 .832,11.2-1.246,12.029-.621,11.407 1.035.207 5.81-5.391 6.638-6.431 6.845-2.281h.827l.415-.624-2.075-10.37 .833-10.991 1.448-11.823 .416-.205 .416-1.038 .6.19z" fill="#f3ceab"></path><path d="m274.39,186.45-.208,9.957-.829,10.577 1.243,9.747-2.697,2.903-3.937,1.037-2.904,2.696-9.127,7.261 .209-9.542 .415-10.991 .206-9.954 .207.207h.414l.415-.623v-.623l-.621-.412-.415-.416v-1.866l.415-.623 1.867-1.245 2.073-1.244 2.075-1.247 9.333-5.598h1.88z" fill="#3f5a8e"></path><path d="m266.3,192.68-.207,2.072-.206,1.865 1.243,1.453 1.451-.828 1.661-1.661 1.655.415-1.448,1.658h-2.282l-1.453,1.87v9.538l1.453,1.037 1.661-2.488 1.865-.415 .413.415-1.451,2.282-5.599-.415 1.657,4.354 .416,6.637-.209.207h-.413l-.415.209-.414-3.112 1.035-3.319-1.035-2.905-2.281.623-1.867,2.282-2.282.828 .415-2.902h4.355l2.074-2.282-.206-2.903v-4.149l-.208-2.902-2.075,1.658-2.694.415-2.282,1.451 .829-2.902 4.355.621 1.867-2.694-.206-6.64h.414v.417l.43.18z" fill="#f3ceab"></path><path d="m184.58,129.62 5.394.621 4.77,1.66 4.978-.414 .829,1.244-3.318,6.221 1.246,7.882-2.905,6.428-.208,4.358-.622,4.563 1.245,4.354 .208,1.035h-2.075l-7.879-3.733-8.09-3.316-9.125-.416-.415-.621-.83-.209 .208-.831 .208-.826 1.039.415h.623l.621-9.957-.416-9.54 .831-10.163 .83-1.243 1.244,1.243h1.036l3.319.208 4.562-.83 2.69,1.88z" fill="#793118"></path><path d="m178.15,129.21 5.393,3.317 6.43.83 6.222,1.038 .206,1.66-.206,2.073-.623,1.661-1.866,15.97 .414.412 .415-.205v7.05l-7.674-1.656-7.258-3.733-8.71.415-.208-9.541 .415-9.333 .623-9.747 .621-.625 5.83.41z" fill="#f3ceab"></path><path d="m194.54,136.26 .208,1.657h-2.28l-.209,1.451-1.657,7.052 .413,6.844 1.039,6.845-5.602-1.451-6.014-4.356-6.429,2.905-.63-.2-.83-.205-.208-.831 .83-8.09 2.075-1.656-1.039-3.528 .624-2.489 .415-7.879 6.429.205 6.843,1.247 6.03,2.49z" fill="#282420"></path><path d="m191.01,137.92-1.036,6.016 .624,7.879-.21,6.224-4.768-1.87-4.979-1.035-5.186-.831-.415-2.489 1.867-2.695-1.658-2.075 1.036-13.481 5.599-.621 4.357,2.491 4.78,2.49z" fill="#3f5a8e"></path><path d="m182.92,135.02 .415,3.109-1.659,3.733 1.659,2.905h2.282l2.073.828 2.281.418v.621l-2.489.207-1.866-1.247-2.282-.412-1.038,2.489 1.038,3.525-1.038,2.489h-.206l-1.661-3.319 3.941-5.808-5.185-.207h-2.282l-1.037-1.037 1.867-.414 1.866,1.451 2.281-.208 .623-9.124h.42z" fill="#f3ceab"></path><path d="m124.85,115.52 4.977.412 4.355,1.661 4.977-.414 .623,1.244-2.903,6.014 1.037,7.465-2.696,6.015-.415,4.357-.622,4.354 1.452,3.939v1.036l-1.038.208-.829-.208-7.467-3.314-7.673-3.112-8.918-.624-.415-.416-.829-.413 .206-.623 .415-.828 .83.412h.623l.829-9.747-.416-9.126 .831-9.54 .83-1.036 1.244,1.036h.831l3.109.207 4.356-.83 2.71,1.86z" fill="#793118"></path><path d="m118.42,115.1 5.184,3.112 6.222.831 6.014,1.037 .209,1.454-.209,2.072-.621,1.452-1.866,15.347 .414.416 .207-.207v6.844l-7.051-1.66-6.845-3.524-8.295.412-.208-9.333 .416-8.917 .622-9.126 .414-.621 5.42.42z" fill="#f3ceab"></path><path d="m133.98,121.74 .415,1.657h-2.281v1.455l-1.66,6.636 .416,6.429 1.036,6.637-5.6-1.451-5.393-4.149-6.22,2.903-.623-.207-.831-.205-.207-.83 1.038-7.882 1.866-1.451-1.037-3.321 .622-2.486 .208-7.465 6.222.205 6.429,1.246 5.58,2.27z" fill="#282420"></path><path d="m130.87,123.2-1.038,6.014 .622,7.259-.207,6.221-4.563-1.658-4.771-1.244-4.977-.831-.207-2.488 1.659-2.487-1.659-1.869 1.036-12.856 5.393-.623 4.147,2.486 4.57,2.08z" fill="#3f5a8e"></path><path d="m122.99,120.5 .621,2.903-1.658,3.528 1.658,2.902h2.075l2.073.831 2.074.414v.417l-2.282.209-1.866-1.04-2.075-.416-1.036,2.49 1.036,3.318-1.036,2.282h-.208l-1.452-3.112 3.527-5.393-4.771-.207h-1.244l-1.037-.205-.83-.831 1.659-.416 1.866,1.246h2.075l.621-8.921h.21z" fill="#f3ceab"></path><path d="m338.89,151.61 .413.625-.207,1.035v1.037l-1.451,1.244-1.864.831-1.661.207-4.978,2.905-5.393,2.697-5.6,2.073v-2.073l6.637-4.358 7.465-2.072 6.63-4.16z" fill="#da9b1b"></path><path d="m339.92,196.2-2.075,1.868-2.488-12.444 2.072-14.726-1.242-13.066-.413-.205 3.109-1.867-.415,13.273 1.036,13.688 .42,13.49z" fill="#da9b1b"></path><path d="m333.5,158.66 .622,13.275 1.867,14.31-2.074,12.856 .828,1.246-3.523,2.282-2.905,3.733-3.733,1.658-.621-12.235-3.319-13.066 .83-12.235 .416-2.907-2.282-4.147 4.355-.416 3.317-1.242 2.902-2.281 3.3-.84z" fill="#bf3902"></path><path d="m197.23,177.74-1.244.417-17.837-4.149-16.59-6.844-18.458-2.282-1.038-.413-.624-.625-.206-.83 .621-.621 19.289,3.112 17.835,6.221 18.25,6z" fill="#f0bf91"></path><path d="m90.424,150.78 5.187,1.451 5.184,2.072 5.185.209 8.297,1.656 7.674,2.698 8.502,1.04 1.452,1.242-1.036,2.695-.416,1.661-3.939,13.275-2.074,13.27 .208,14.936 .621,3.524-.621,4.979 .621,3.316 1.037,2.907-2.488,4.145 3.318,1.451 1.66,6.638-19.91-12.233-1.038-1.04-7.052-3.318-7.88-1.244-7.673-1.659-.208-.623-.413-.417 .206-.621 .83-.414 1.244-.416-.208-1.451 .622-20.325 .415-20.531 .829-20.327 1.87,1.44z" fill="#793118"></path><path d="m127.13,163.01-.207,8.505-3.319,8.712 .623,8.502 1.452.621-1.244,1.661v1.244l-.208,10.575-1.453,11.824-.206,10.577-7.259-2.281-7.259-3.112-7.26-2.698-3.526-3.316-5.184-.621-4.356-1.246v-19.494l.829-20.74 .415-20.532 12.859,3.524 12.652,4.563 12.66,3.75z" fill="#f3ceab"></path><path d="m92.291,155.55 10.579,2.903 10.576,3.111 10.785,2.907-2.489,18.043v19.494l-1.66,17.835-9.954-3.732-10.37-2.903-9.955-4.149-.415-3.112 .207-3.316v-3.109l1.66-45.006 1.024,1.04z" fill="#282420"></path><path d="m104.74,159.91-.623,17.212-.623,18.666-1.244,16.796-3.94-1.036-3.319-1.867-3.94-1.035-.623-4.771 .831-6.014-1.037-3.942 .621-2.489-.207-10.577 .415-13.896 1.038-10.577 4.354.83 4.15,1.452 4.14,1.26z" fill="#3f5a8e"></path><path d="m101.42,160.53h2.905v1.451l-5.187-.83-.828,3.32 .415,3.317-.208,3.318 4.977,2.072-1.659.83-1.867-2.072-1.658,1.035v8.919l1.036,1.66 2.904-.625 .829,1.452-1.867-.205-1.244.205-1.658-.826 1.036,3.523-4.563,6.845 6.222.414 .623-.205 .622.414 .414.416-1.452,1.242-3.11-3.732-.623,2.695 .831,2.698-2.696,5.184 4.147.621 1.036-.207 .623.83v.828l-1.244.209-1.451-1.867-1.246.83v3.319h-.623v-1.244l-.207-1.452 .415-1.247-1.659-1.242-3.526.831v-1.454l4.977.415-.828-3.112 3.524-5.805-4.77-.831-.622-.621-1.867,1.035v-1.452l1.661.208 1.659.209 1.451.621 .831-2.698-.624-3.523 .208-3.112-1.659-.621-1.866-1.039-1.867-.415v-1.66l4.354,2.072 .83.416 1.039-2.698-.623-3.524 .208-3.32h-1.246l-3.733-1.036-.623-1.244 1.867.417 2.28,1.242 1.661-.83-1.661-4.145 5.602-7.675-7.673.831-1.246-1.04 2.696,1.245 2.905-1.245 2.708,1.65z" fill="#f0bf91"></path><path d="m108.47,160.94-.83,17.838-.831,16.798-.829,18.25-1.037-.207h-2.073l.414-1.865 .622-16.594 1.244-17.628 .829-17.215 2.5.62z" fill="#f3ceab"></path><path d="m122.57,164.88v7.674l-.83,8.296-.416,7.465-2.073,30.282-11.822-3.941-.83-3.529 1.244-4.144-.415-3.942 1.866-41.685 4.354,1.451 4.771.621 4.16,1.45z" fill="#3f5a8e"></path><path d="m121.95,166.33-2.075.831-1.659-3.112-1.867,1.454v2.488l-.207,3.318-.208,2.905 1.453,1.451 3.111-.83 .829,1.661-1.244.207-3.733-1.867-.622,1.867-.831,9.952 1.66,2.698 3.525-2.903v2.487h-1.658l-2.075-1.035-1.658,1.035 .206,3.111-.621,2.282-.208,3.111 1.451,1.868 3.526-.621 .623,2.073-4.977-1.661-1.039,2.491-.207,3.732 .415,3.319 1.658,1.035 2.282-.412 1.038,1.451-1.661.412-1.659-1.451-1.867.209-.622,4.77h-.414l.208-5.391-1.453-.623-1.867-.208-1.036-1.451 2.074-.418 1.036,2.7 1.452-1.454 .622-8.711-1.658-1.035-2.282-.207-1.244-1.04 1.659-.207 2.074,1.453 1.659-.828-.83-3.321 4.356-7.051-6.223.416-1.659-.209 .415.209-.83-.831 1.661-.83 2.695,2.905 1.246-2.491 .415-10.369-1.454-1.244-2.281.828-1.452-1.245 1.452-.414 1.866,1.036 1.869-.205 .828-2.905v-4.147l-.207-2.697-1.659-1.452-3.525,1.246v-1.455h3.94l4.147,1.037 3.34,2.23z" fill="#f0bf91"></path><path d="m320.22,168.2 .621,14.517-.206,13.273 .414,15.137-1.866.831-1.451,2.077-2.073.826v-8.086l1.038-8.502v-8.919l1.035-1.242-.83-1.456 .624-1.451-.208-6.219 .208-7.26 .621-6.015 2.281-2.072-.208,3.316v1.23z" fill="#da9b1b"></path><path d="m185.21,185 13.273,4.767-.624-.205-1.866-.416-.829-.209h-.416v-.412h-1.453l-1.866-1.04h-1.451l-1.453-1.451-2.49.209-1.658-1.04-.414.625-.622-1.039h-.623l-.208-.207v-.209h-.208l-.206,1.247-.624-1.247h-.414l-.624-.412-1.036.412-.83-.826-.829.205-12.443-2.281-11.821-4.354-12.444-2.282v-.621l15.761,1.242 13.688,5.6 14.72,3.95z" fill="#f0bf91"></path><path d="m163.22,194.75-.622.83-8.295-2.281-8.71-1.452-8.296-1.868v-.414l-.415-.209v-.416l.415-.621 9.125.621 8.711,2.282 8.09,3.53z" fill="#f0bf91"></path><path d="m156.79,205.74v.828l-6.429-1.451-6.637-.828-6.014-2.074-.415-.621v-.209l.415-.621 6.844.621 6.429,1.451 5.8,2.9z" fill="#f0bf91"></path><path d="m380.99,206.98 .827,1.242-.414.209-.621.831-1.867,1.035-.413-2.695-1.454.207-2.902-.621-2.903-2.488-2.904,1.452-.83,1.037-.414,1.245 .827,1.037 .627,1.036 1.656.208-.413,1.243-.83-.205 .207,1.035-.414.417-1.867-.417-.414-1.865-1.867-.623-3.112-1.035-2.485-1.247-3.735.829-2.074,1.453 .413,2.905 .417,2.072 .416,2.075 2.072,2.488 2.074,1.661-.623,1.451-6.015-1.868-6.844-2.072-6.842,1.867 1.864,2.902 2.905,2.489 2.28,2.696-.208.209-.83.205 .416.831-5.394.623-5.598-2.074-5.185,1.247-2.074,2.279 2.279,2.905 1.037,2.282 1.661,2.072 1.657,1.452 1.659,1.66h-.828l.414,1.242-.414.417-6.017-1.246-5.598-2.693-6.224.414-1.655,1.037 1.448,1.661-.206,1.451 2.488,4.979 2.281,4.768 3.111,4.563-.21,1.247-1.034.828-1.246-.828-6.844-6.433-9.541-3.318-8.915,2.906-2.073,1.242 1.448,2.075v1.247l.832,2.693 1.45,2.698 1.867,2.074-.415.412 .207,1.453-1.034-.207-4.979-2.904-5.601-3.316-6.014,1.242-4.146,2.904 .206,5.391-.206,4.359-.416.414h-.624l-.621.207-1.038-1.658-.622-2.075-2.075-.83-1.864-.621-2.487-.417-2.073.621-2.282,2.077 .207,3.111-.415,2.903-4.771,2.486 3.111-7.256-3.318-.623-2.696,2.905-1.451,3.523-1.038,3.528-.621.205-.415-.205-.207-.416 .622-4.768 1.45-4.563 4.356-2.697h1.037l1.243-.21 .83.831 1.452-1.452 1.658-2.072 2.282.207 3.32-.623 2.486,1.244 2.491,1.036 1.242-3.733 .83-4.975 4.563-1.247 4.978-.829 3.731,2.075 3.942,1.451 .621-.621-.828-2.49-1.868-2.903 .415-2.49 5.603-5.184 10.161,1.866 6.224,2.697 1.864.621 1.451,1.869 1.661.412-.83-5.6-5.809-4.147 .829-6.014 1.66-2.488 3.939.621 2.698.621 2.488,1.04 2.902-.209 2.488,1.039 .414-.208-2.072-3.733-4.772-4.146 2.907-3.94 4.769-2.491 5.807,2.075 5.185-.623-1.657-2.694-3.94-2.076-.621-2.903 3.73-3.321 6.223,1.246 4.563.415 1.241.831 .832-.209 1.036-.205-1.868-3.319-.827-4.563 2.28-3.526 3.526-2.074 4.563,1.246 3.525,1.242 .83-1.451-.416-2.282 2.074-.831 1.244-.207h1.658l1.04.207 3.109,1.452 3.527,1.247 3.27.53z" fill="#def025"></path><path d="m157.62,218.8-3.941,1.66-5.185-2.282-4.563-.208-1.036-.621-1.245-.209-.83-1.035-.207-.621v-.83l.622-.621 4.977,2.695 6.223-.209 5.18,2.29z" fill="#f0bf91"></path><path d="m375.8,230.01-.83,2.279-2.697-.416-1.449-.621-1.454-1.038h-1.867l-1.242-1.035 .828,2.281 2.697,2.487-1.037,2.905-2.904,2.074-.414-.416-8.919.207 .624,2.074 1.45,2.28-.829,2.49-1.453,4.563-4.771-2.282-3.109.207-.207-.412-.414.205h-.415l.208,2.903 1.035,4.771-2.902,2.073-3.318.83-3.733-.414-3.318-.209-.83,1.246 1.247,1.866-1.454.831-1.658-1.242-.209-2.282 .209-2.077 3.733-.83 3.94,2.488 3.73-2.072 3.115-3.524-3.115-4.357-1.034-3.526 2.072-.207 1.661,1.661 1.864.412 2.075.625h2.695l1.453-1.661 2.282-3.318-4.563-2.281 .207-3.319 1.451-.828 1.037,1.865 1.66-.414 3.523-.208 3.734,1.037 2.488-2.488-1.038-3.733-3.73-2.49-.622-3.733 3.938.209 3.321,3.317 4.146.207 .624-1.451-.624-1.867-.415-1.452-1.242-2.074-1.454-1.242-.828-2.077 .828-.205 1.247-1.246 .621,1.451 2.901,3.111 1.868,3.528-.45,4.55z" fill="#def025"></path><path d="m139.37,263.6 2.696,1.658 1.038,2.905 .208,2.903 .414.415 .83-.621h.622v.207h.207l.208.207 1.244-2.074 4.148,2.074 2.075-.624 3.317.624-2.073,5.807 3.733-1.242 2.696-1.867 2.073,2.282 2.905-.624 2.072,1.245 .208,2.698 .832,2.072 3.317-.416 3.942-1.035 3.11.414 .623,7.051 6.844-5.184 3.527,1.244h.828l.83-.623 1.038.208 1.037,1.243 2.696,1.66-2.49,1.244-1.866,1.247-2.072,1.242-1.661,2.074-.829.208-.622-.621-.209-.622 .416-2.281 2.696-1.454 1.66-1.453-2.075-1.244-3.733.623-2.696.207-3.112-.621-1.866,6.429-2.902-3.526-.624-1.867 1.454-.621 1.036-.623 1.036.418 .624-.418 .414-.622-1.866-2.281-3.733.209-2.696.83-3.318-.83v7.879l-3.111-4.356-.415-2.693 4.562.205-2.074-3.112-1.037-1.656-1.867-1.661-2.28.414-.83-.83 .208,1.451-2.281-.83-.83.83h-1.038v.416l.208.209-1.659.826-.622,1.867-1.451.414-3.318-3.107 7.674-1.04-3.735-3.523-1.659-1.661-2.49-.416-2.281.621-.206-.206-.209-.416h-.415l-1.659.416-2.281,1.865-2.282,1.038 .208-.828-1.659.207 .208-1.038 1.244-1.66 3.733-.208-2.075-2.695h-.621l.83.414-.208-1.865-.415-.624-.206-.622-.83.415-.208.207-1.659-1.868-2.697-.412-2.281.621-1.866.621-1.66,1.037h-1.866l-.831-1.451 3.32-1.451 3.525-.831h3.733l.415.414 .415.622 .65-.21z" fill="#def025"></path><path d="m143.73,271.9 1.037-.623-.83.623h-.21z" fill="#fff"></path><path d="m154.93,275.63-.208-1.451 .208.621v.83z" fill="#fff"></path><path d="m157,277.08 .827-.828h.83l-1.66.83z" fill="#fff"></path><path d="m165.5,172.14 4.978,1.658 5.392,2.075 5.599.205 8.504,1.87 8.089,2.694 8.918,1.246 1.243,1.244-1.037,2.697-.206,1.866-4.15,13.896-2.281,13.896 .415,15.347 .624,3.733-.831,5.187 .623,3.732 1.245,2.903-2.49,4.354 3.32,1.66 1.659,6.845-20.533-12.858-1.243-1.04-7.467-3.524-7.882-1.451-8.088-1.868-.206-.414-.415-.415 .208-.625 .829-.621 1.245-.414v-1.452l.415-21.157 .415-21.361 1.038-21.361 2.06,1.42z" fill="#793118"></path><path d="m203.46,185-.209,8.917-3.317,9.125 .415,8.917 1.66.83-1.454,1.661v1.242l-.206,10.787-1.245,12.444-.208,11.199-7.881-2.487-7.466-3.112-7.465-2.906-3.734-3.733-5.185-.621-4.563-1.037v-20.324l.831-21.57 .415-21.566 13.272,3.523 13.067,4.979 13.28,3.74z" fill="#f3ceab"></path><path d="m167.16,177.12 10.991,3.112 10.993,3.523 11.2,2.902-2.49,18.875v20.118l-1.659,18.874-10.37-4.148-10.991-3.112-10.163-4.146-.415-3.319 .208-3.318v-3.317l1.866-47.083 .82,1.06z" fill="#282420"></path><path d="m180.23,181.89-.831,18.042-.621,19.083-1.245,17.628-4.148-1.039-3.524-2.073-3.942-1.037-.621-4.768 1.036-6.431-1.036-3.941 .415-2.491-.208-11.199 .415-14.516 1.037-10.991 4.563.83 4.148,1.657 4.56,1.25z" fill="#3f5a8e"></path><path d="m176.5,182.72 .83-.207 2.281.207v1.244l-5.394-.83-1.036,3.523 .624,3.321-.209,3.733 5.186,2.075-1.66.828-2.075-2.282-1.659,1.246v9.333l1.038,1.656 3.111-.621 .83,1.661-2.075-.415-1.245.206-1.659-.831 1.038,3.735-4.562,6.842 6.428.416h.622l.415.209 .415.621-1.452,1.036-3.111-3.524-.622,2.698 .83,2.695-2.696,5.391 4.148.831 1.036-.209 .623.623v.831l-1.244.416-1.451-1.87-1.246.831v3.32h-.829l.206-1.246-.414-1.451 .621-1.244-1.866-1.452-3.526.831v-1.452l4.979.621-.623-3.528 3.524-6.014-4.768-.621-.623-.623-2.075.831v-1.247h1.866l1.452.416 1.659.623 .83-2.902-.623-3.526 .208-3.318-1.866-.624-1.66-1.037-2.074-.621v-1.66l4.563,2.281 .829.416 1.037-2.904-.622-3.732 .208-3.317-1.451-.208-3.735-.831-.621-1.242 2.075.205 2.074,1.246 1.866-.625-1.658-4.354 5.599-8.089-7.674.831-1.453-1.037 2.697,1.242 3.112-1.242 2.67,1.83z" fill="#f0bf91"></path><path d="m183.96,182.92-.83,18.668-.83,17.422-.83,19.08-1.037-.415-2.281.205 .415-1.865 .623-17.629 1.244-18.042 1.037-17.835 2.5.4z" fill="#f3ceab"></path><path d="m198.89,187.07-.208,8.089-.83,8.502-.414,7.882-2.281,31.731-12.445-4.563-.621-3.524 1.036-4.356-.415-4.149 2.281-43.346 4.563,1.451 4.771.831 4.56,1.46z" fill="#3f5a8e"></path><path d="m198.06,188.73-2.075.621-1.867-3.109-1.866,1.451v2.698l-.206,3.316-.209,3.109 1.451,1.454 3.111-.831 1.039,1.659-1.245.209-4.147-1.868-.624,2.077-.827,10.368 1.866,2.693 3.732-2.903v2.698h-1.866l-2.075-1.247-1.867,1.247 .21,3.112-.624,2.281v3.112l1.451,1.865 3.526-.623 .83,2.281-5.393-1.867-1.036,2.698-.208,3.942 .415,3.317 1.66,1.246 2.489-.418 1.243,1.453-1.866.417-1.866-1.451h-1.867l-.415,4.975h-.621l.206-5.393-1.451-.621-2.075-.415-1.036-1.451 2.072-.416 1.246,2.903 1.659-1.659 .415-9.126-1.659-1.035-2.282-.208-1.451-1.039 1.66-.206 2.281,1.661 1.659-1.04-.83-3.528 4.562-7.049-6.635.415-1.66-.415 .415.415-.83-.831 1.661-1.035 3.11,3.111 1.036-2.698 .623-10.784-1.659-1.245-2.49.831-1.451-1.246 1.451-.415 2.075,1.04 2.074-.209 .624-3.111 .206-4.149-.415-2.902-1.658-1.451-3.525,1.242v-1.64l4.146.205 4.148,1.04 3.56,2.49z" fill="#f0bf91"></path></g></svg>