<svg xmlns="http://www.w3.org/2000/svg" width="118" height="123" viewBox="0 0 118 123" fill="none"><mask id="mask0_2010_238" style="mask-type:luminance" maskUnits="userSpaceOnUse" x="40" y="35" width="50" height="44"><path d="M40.0781 35.8491H90V78.8491H40.0781V35.8491Z" fill="white"></path></mask><g mask="url(#mask0_2010_238)"><path d="M68.5887 42.026C67.4064 41.9114 66.2137 41.7291 65.0314 41.7083C61.9377 41.625 58.9116 42.2187 55.8648 42.6823C54.771 42.8541 54.2502 43.3281 53.7606 44.2708C52.0783 47.4948 50.245 50.6354 48.4741 53.8021C48.3596 54.0208 48.2085 54.2916 48.245 54.5052C48.4168 55.5052 48.6564 56.4844 48.8804 57.5625C49.1773 57.3333 49.4064 57.1614 49.6304 57.0052C50.9064 56.0625 52.4846 56.2552 53.2814 57.4583C53.8648 58.3229 53.7971 59.2969 53.0887 60.0573C51.6252 61.6458 50.146 63.2344 48.6564 64.8125C47.9377 65.5729 46.7189 65.7083 45.7866 65.1614C44.9116 64.651 44.5054 63.6406 44.8231 62.6094C44.9585 62.1666 45.1877 61.7344 45.4689 61.3594C45.995 60.6719 46.5939 60.0364 47.1408 59.3541C47.2762 59.1823 47.3804 58.8854 47.3491 58.6823C47.2085 57.9323 47.0158 57.1979 46.8231 56.4583C46.7918 56.3229 46.6512 56.151 46.5158 56.0937C46.0054 55.8906 45.4377 55.776 44.9585 55.5156C43.9325 54.9635 42.9585 54.3281 41.9585 53.7239C41.6721 53.5521 41.3856 53.4062 41.0783 53.2812C40.3075 52.9635 40.1043 52.625 40.4116 51.8541C40.7606 50.9791 41.1616 50.1146 41.5783 49.276C43.2762 45.8698 45.1512 42.5677 47.2658 39.401C47.62 38.8802 48.0314 38.3802 48.4741 37.9166C49.1773 37.1666 49.771 37.0885 50.5887 37.7239C51.6929 38.5729 52.7606 39.4948 53.7814 40.4479C54.2814 40.9114 54.7033 41.125 55.4533 40.9791C58.4325 40.3802 61.4481 39.8906 64.495 39.8802C67.0575 39.8698 69.5939 40.1406 71.8439 41.5833C72.4012 41.9427 72.9689 41.7083 73.3648 41.1927C74.6044 39.6041 75.8596 38.0156 77.1669 36.4739C77.6877 35.8489 78.146 35.875 78.771 36.4062C82.3648 39.4948 85.9429 42.5781 89.5262 45.6666C90.0262 46.0989 90.0523 46.5625 89.5731 47.0833C88.6408 48.1041 87.6981 49.1302 86.7398 50.125C86.2866 50.6041 85.9116 51.0364 85.7971 51.7604C85.5366 53.5104 85.0366 55.1979 83.8544 56.651C84.1929 56.9271 84.4533 57.2083 84.7762 57.401C86.0679 58.2083 86.2658 59.4114 85.9429 60.7396C85.5002 62.5989 84.3179 63.7916 82.4637 64.276C82.1252 64.3698 82.0106 64.5156 81.9533 64.8906C81.646 66.9791 80.8023 68.7396 78.7554 69.6927C78.5731 69.7708 78.4481 70.0989 78.4273 70.3281C78.3387 71.4531 78.0887 72.5156 77.3335 73.4166C76.6877 74.1875 75.8439 74.6614 74.8335 74.7083C74.3439 74.7291 74.1981 74.9323 74.0835 75.3541C73.5835 77.2396 71.5002 78.8489 69.5575 78.7604C68.9221 78.7239 68.2137 78.4635 67.6929 78.0989C65.6356 76.6614 63.646 75.1406 61.62 73.6406C61.5731 73.6094 61.5262 73.5833 61.4273 73.526C61.0262 73.9583 60.6408 74.4114 60.2189 74.8333C59.0366 76.026 57.1616 75.7083 56.4325 74.1979C56.0939 73.4948 56.1044 72.8125 56.6721 72.1771C58.0835 70.5781 59.5054 68.9896 60.8335 67.3333C61.6877 66.276 63.1408 66.401 63.87 66.9583C64.8023 67.6614 65.0991 69.0573 64.4273 70.0312C64.0419 70.5989 63.5314 71.0781 63.0731 71.5989C62.9377 71.7552 62.7919 71.9166 62.6096 72.1198C63.1981 72.5833 63.7346 73.0416 64.3023 73.4583C65.7919 74.5364 67.2919 75.5937 68.7971 76.6719C69.271 77.0104 69.7606 77.0573 70.2971 76.8437C71.2971 76.4531 72.1408 75.901 72.4689 74.7864C72.5575 74.4583 72.5158 74.2187 72.2658 74.0156C70.3544 72.4739 68.4429 70.9375 66.521 69.4062C66.1096 69.0885 65.6929 68.8073 65.7346 68.1927C65.7814 67.6719 66.1252 67.3541 66.6252 67.5C67.0679 67.625 67.521 67.8281 67.8856 68.1146C69.5106 69.4062 71.1044 70.7344 72.7085 72.0521C72.8648 72.1771 73.0054 72.3125 73.1616 72.4375C74.3908 73.4166 76.0523 72.8594 76.4585 71.3385C76.495 71.2031 76.5262 71.0521 76.5523 70.9166C76.745 70.0416 76.62 69.3489 75.8023 68.75C73.995 67.4219 72.2658 66.0052 70.5262 64.5937C70.2762 64.3906 69.9898 64.1406 69.9116 63.8594C69.8283 63.5729 69.8752 63.1198 70.0679 62.9271C70.2502 62.7448 70.6825 62.7448 71.0002 62.7552C71.1929 62.7708 71.3752 62.9635 71.5471 63.0989C73.3648 64.5521 75.1877 66.0156 77.0054 67.4687C77.9377 68.2187 78.3231 68.1823 79.0887 67.25C79.7241 66.4791 80.1929 65.6198 80.2033 64.5937C80.2033 64.3229 80.0523 63.9844 79.8491 63.8021C78.2554 62.4375 76.6408 61.1146 75.0523 59.75C74.7294 59.4896 74.4481 59.1719 74.2189 58.8333C73.995 58.5 74.0471 58.0729 74.3804 57.8541C74.6304 57.6979 75.0523 57.6041 75.3231 57.7083C75.7189 57.8541 76.0627 58.1614 76.3908 58.4427C77.8491 59.6823 79.3023 60.9323 80.7241 62.2031C81.2502 62.6666 81.771 62.8021 82.3491 62.4375C82.8387 62.1354 83.3648 61.8281 83.7137 61.3958C84.5679 60.375 84.4325 59.4219 83.4429 58.5573C79.4377 55.0521 75.4481 51.5469 71.4325 48.0729C71.1929 47.8698 70.7762 47.7448 70.4533 47.7864C68.7033 48.0156 66.9533 48.2656 65.2241 48.5729C64.6669 48.6719 64.1304 48.9583 63.5887 49.1719C61.9585 49.8333 60.4689 49.5364 59.1044 48.5364C58.1825 47.8698 58.0835 46.9739 58.9012 46.1666C59.6616 45.4166 60.5939 44.8385 61.37 44.0989C62.4064 43.1146 63.646 42.75 65.0314 42.6458C66.2241 42.5573 67.4064 42.3437 68.6044 42.1823C68.5887 42.151 68.5887 42.0937 68.5887 42.026ZM49.7346 39.1614C46.7085 43.1927 44.4898 47.5156 42.3179 51.8854C43.6721 52.6666 44.9377 53.4062 46.245 54.1666C48.2658 50.4896 50.2606 46.8802 52.2346 43.2708C52.4429 42.8958 52.8648 42.4687 52.7919 42.1354C52.7241 41.776 52.2137 41.4896 51.8856 41.1823C51.2241 40.5364 50.5314 39.901 49.7346 39.1614ZM87.7189 46.4375C87.3335 46.1198 86.9898 45.8489 86.6721 45.5625C85.2606 44.3073 83.8752 43.0208 82.4325 41.7864C81.1252 40.6614 79.7606 39.5833 78.4169 38.5052C78.2919 38.401 77.9637 38.3594 77.8908 38.4271C76.9846 39.4791 76.0939 40.5573 75.1773 41.6614C78.396 44.3177 81.5783 46.9479 84.7971 49.6041C85.7866 48.5469 86.7398 47.5156 87.7189 46.4375Z" fill="black"></path></g><path d="M58.9795 63.4272C60.1775 63.4272 61.1514 64.2918 61.1775 65.4481C61.1879 65.8231 61.0368 66.2866 60.8025 66.5835C59.115 68.5887 57.4014 70.5679 55.6931 72.5522C54.7139 73.6877 53.5108 73.8804 52.4847 73.0835C51.4066 72.2345 51.2243 70.7918 52.1566 69.6564C53.3493 68.2189 54.6254 66.8439 55.865 65.4377C56.2035 65.0522 56.5368 64.6668 56.891 64.3022C57.5368 63.6408 58.0733 63.4272 58.9795 63.4272Z" fill="black"></path><path d="M50.4736 70.0104C48.6195 69.8854 47.5257 68.0104 48.4632 66.3645C48.9945 65.4114 49.7445 64.5624 50.4736 63.7343C51.4059 62.6666 52.3955 61.6458 53.3747 60.6145C54.0205 59.9322 55.2705 59.7395 56.1038 60.1822C56.958 60.6354 57.4684 61.7499 57.208 62.6874C57.1403 62.927 56.9997 63.1562 56.833 63.3489C55.0205 65.4114 53.2132 67.4791 51.3851 69.5208C51.1559 69.7604 50.7809 69.8489 50.4736 70.0104Z" fill="black"></path><path d="M20.0882 116.463C19.0049 116.463 17.3174 116.396 15.0205 116.265C12.7549 116.135 10.7549 115.937 9.0153 115.672C7.80176 115.411 6.75488 114.802 5.86426 113.854C4.97884 112.901 4.53613 111.62 4.53613 110.015C4.53613 98.3332 4.57259 87.9998 4.63509 79.0102C4.7028 69.9894 4.80176 61.755 4.93197 54.3071C5.09342 46.828 5.34343 39.6405 5.67155 32.755C5.99967 25.8332 6.44238 18.5988 6.99967 11.0519C7.3903 8.09879 8.86947 6.42692 11.4268 6.03109C12.9059 5.77067 14.6403 5.57275 16.6455 5.44254C18.6768 5.27588 20.5622 5.19775 22.3018 5.19775C23.9111 5.19775 25.9111 5.27588 28.307 5.44254C30.734 5.57275 32.557 5.77067 33.7705 6.03109C35.3747 6.29671 36.6247 6.93213 37.5101 7.95296C38.3955 8.93733 38.6247 10.0988 38.1976 11.4478C37.5413 14.005 36.9684 16.3019 36.4736 18.3332C36.0153 20.3384 35.7861 22.6821 35.7861 25.3696C35.7861 27.3748 36.3278 28.5519 37.4111 28.9165C38.4945 29.2446 39.4268 28.3227 40.2132 26.1613C43.4632 18.5155 48.0726 13.0207 54.0413 9.67171C60.0153 6.29672 66.708 4.604 74.1194 4.604C77.208 4.604 80.4215 4.98421 83.7653 5.73421C87.1455 6.45817 89.9007 7.42692 92.0361 8.64046C94.7236 10.1144 96.0674 12.1978 96.0674 14.8905C96.0674 19.0571 96.0361 22.9269 95.9736 26.505C95.9059 30.0467 95.7444 33.9686 95.4788 38.2655C95.3486 40.8227 94.2965 42.38 92.3278 42.9425C90.3955 43.4634 88.6872 42.9217 87.2132 41.3175C83.5726 38.1977 79.7653 36.0832 75.7965 34.9686C71.859 33.8175 67.8747 33.2446 63.8382 33.2446C58.8486 33.2446 54.1767 34.6248 49.8122 37.38C45.4476 40.1352 41.9215 44.104 39.234 49.2863C36.5413 54.4373 35.1976 60.6404 35.1976 67.8904C35.1976 73.0102 35.359 78.2915 35.6872 83.7342C36.0153 89.1821 36.3747 94.2186 36.7705 98.8436C37.1976 103.469 37.4788 107.193 37.609 110.015C37.7392 111.786 37.2965 113.146 36.2809 114.099C35.2965 115.015 34.1976 115.609 32.984 115.87C31.5049 116 29.5205 116.135 27.0257 116.265C24.5361 116.396 22.2184 116.463 20.0882 116.463Z" stroke="black" stroke-width="7.5593"></path><path d="M94.2445 118.375C88.6038 118.375 83.9268 116.766 80.2184 113.552C76.5465 110.302 74.708 105.724 74.708 99.8229C74.708 93.9167 76.5465 89.3542 80.2184 86.1406C83.9268 82.8906 88.6038 81.2656 94.2445 81.2656C100.021 81.2656 104.744 82.8906 108.416 86.1406C112.125 89.3542 113.979 93.9792 113.979 100.016C113.979 105.792 112.093 110.302 108.317 113.552C104.578 116.766 99.8903 118.375 94.2445 118.375Z" stroke="black" stroke-width="7.5593"></path><path d="M20.0814 116.486C18.998 116.486 17.3158 116.413 15.0397 116.278C12.7585 116.137 10.748 115.934 8.99805 115.674C7.78971 115.413 6.74805 114.809 5.87305 113.861C4.99805 112.919 4.56055 111.643 4.56055 110.028C4.56055 98.3353 4.5918 87.9863 4.66471 78.9863C4.73242 69.9863 4.83138 61.7572 4.95638 54.2988C5.0918 46.8405 5.33138 39.653 5.66471 32.7363C5.99805 25.8092 6.43555 18.5853 6.97721 11.0697C7.37825 8.11133 8.85742 6.43424 11.4147 6.02799C12.8835 5.75195 14.6283 5.54883 16.6439 5.42383C18.6699 5.28841 20.5501 5.21549 22.2897 5.21549C23.8991 5.21549 25.9147 5.28841 28.3314 5.42383C30.7585 5.54883 32.5814 5.75195 33.7897 6.02799C35.3991 6.29362 36.6439 6.93424 37.5189 7.94466C38.3939 8.94466 38.6283 10.1217 38.2272 11.4655C37.5449 14.0228 36.9668 16.3092 36.498 18.3197C36.0397 20.3353 35.8105 22.6895 35.8105 25.3822C35.8105 27.3978 36.3418 28.5697 37.4147 28.903C38.4824 29.2363 39.4199 28.3301 40.2272 26.1738C43.4616 18.5228 48.0658 13.0176 54.0397 9.65299C60.0241 6.29362 66.7116 4.61133 74.1022 4.61133C77.1855 4.61133 80.4043 4.98112 83.7689 5.71549C87.1283 6.45508 89.8835 7.43424 92.0397 8.65299C94.7168 10.127 96.0605 12.2051 96.0605 14.8822C96.0605 19.0488 96.0241 22.9186 95.9564 26.4863C95.8991 30.0436 95.7324 33.9759 95.4564 38.278C95.3314 40.8353 94.2897 42.3822 92.3314 42.9238C90.3835 43.4551 88.6751 42.9134 87.2064 41.2988C83.5658 38.2051 79.7689 36.0853 75.8105 34.9447C71.8522 33.8092 67.8522 33.2363 63.8105 33.2363C58.8366 33.2363 54.1647 34.6217 49.7897 37.3822C45.4251 40.1322 41.8991 44.1009 39.2064 49.278C36.5241 54.4447 35.1855 60.653 35.1855 67.903C35.1855 73.0176 35.3522 78.2936 35.6855 83.7363C36.0293 89.1686 36.4043 94.2051 36.8105 98.8405C37.2116 103.481 37.4824 107.21 37.623 110.028C37.748 111.778 37.3001 113.127 36.2897 114.07C35.2897 115.002 34.1855 115.606 32.9772 115.882C31.5033 116.007 29.5241 116.137 27.0397 116.278C24.5501 116.413 22.2324 116.486 20.0814 116.486Z" fill="#800000"></path><path d="M94.2432 119.68C88.6025 119.68 83.9307 118.07 80.2223 114.846C76.5244 111.627 74.6807 107.055 74.6807 101.138C74.6807 95.2212 76.5244 90.6535 80.2223 87.4295C83.9307 84.2108 88.6025 82.5962 94.2432 82.5962C100.019 82.5962 104.754 84.2108 108.451 87.4295C112.144 90.6535 113.993 95.2941 113.993 101.346C113.993 107.127 112.108 111.627 108.347 114.846C104.582 118.07 99.8786 119.68 94.2432 119.68Z" fill="#800000"></path></svg>